<mxfile host="app.diagrams.net" modified="2023-05-03T06:49:42.244Z" agent="Mozilla/5.0 (Windows NT 10.0; Win64; x64) AppleWebKit/537.36 (KHTML, like Gecko) Chrome/112.0.0.0 Safari/537.36" etag="qy6JfpEq0TGS-fxTV37C" version="21.2.6" type="device">
  <diagram id="C5RBs43oDa-KdzZeNtuy" name="Page-1">
    <mxGraphModel dx="1313" dy="734" grid="1" gridSize="10" guides="1" tooltips="1" connect="1" arrows="1" fold="1" page="1" pageScale="1" pageWidth="827" pageHeight="1169" math="0" shadow="0">
      <root>
        <mxCell id="WIyWlLk6GJQsqaUBKTNV-0" />
        <mxCell id="WIyWlLk6GJQsqaUBKTNV-1" parent="WIyWlLk6GJQsqaUBKTNV-0" />
        <mxCell id="WIyWlLk6GJQsqaUBKTNV-2" value="" style="rounded=0;html=1;jettySize=auto;orthogonalLoop=1;fontSize=11;endArrow=block;endFill=0;endSize=8;strokeWidth=1;shadow=0;labelBackgroundColor=none;edgeStyle=orthogonalEdgeStyle;" parent="WIyWlLk6GJQsqaUBKTNV-1" edge="1">
          <mxGeometry relative="1" as="geometry">
            <mxPoint x="220" y="120" as="sourcePoint" />
            <mxPoint x="220" y="170" as="targetPoint" />
          </mxGeometry>
        </mxCell>
        <mxCell id="2DEnmHCUIAToEe8VNxA_-0" value="START" style="ellipse;whiteSpace=wrap;html=1;" parent="WIyWlLk6GJQsqaUBKTNV-1" vertex="1">
          <mxGeometry x="170" y="100" width="100" height="40" as="geometry" />
        </mxCell>
        <mxCell id="2DEnmHCUIAToEe8VNxA_-3" value="" style="edgeStyle=orthogonalEdgeStyle;rounded=0;orthogonalLoop=1;jettySize=auto;html=1;" parent="WIyWlLk6GJQsqaUBKTNV-1" source="2DEnmHCUIAToEe8VNxA_-1" target="2DEnmHCUIAToEe8VNxA_-2" edge="1">
          <mxGeometry relative="1" as="geometry" />
        </mxCell>
        <mxCell id="2DEnmHCUIAToEe8VNxA_-1" value="Read Initial Stage" style="rounded=0;whiteSpace=wrap;html=1;" parent="WIyWlLk6GJQsqaUBKTNV-1" vertex="1">
          <mxGeometry x="160" y="170" width="120" height="60" as="geometry" />
        </mxCell>
        <mxCell id="2DEnmHCUIAToEe8VNxA_-5" value="" style="edgeStyle=orthogonalEdgeStyle;rounded=0;orthogonalLoop=1;jettySize=auto;html=1;" parent="WIyWlLk6GJQsqaUBKTNV-1" source="2DEnmHCUIAToEe8VNxA_-2" target="2DEnmHCUIAToEe8VNxA_-4" edge="1">
          <mxGeometry relative="1" as="geometry" />
        </mxCell>
        <mxCell id="2DEnmHCUIAToEe8VNxA_-2" value="Make Hand Gesture" style="rhombus;whiteSpace=wrap;html=1;rounded=0;" parent="WIyWlLk6GJQsqaUBKTNV-1" vertex="1">
          <mxGeometry x="140" y="250" width="160" height="100" as="geometry" />
        </mxCell>
        <mxCell id="2DEnmHCUIAToEe8VNxA_-9" value="" style="edgeStyle=orthogonalEdgeStyle;rounded=0;orthogonalLoop=1;jettySize=auto;html=1;" parent="WIyWlLk6GJQsqaUBKTNV-1" source="2DEnmHCUIAToEe8VNxA_-4" target="2DEnmHCUIAToEe8VNxA_-8" edge="1">
          <mxGeometry relative="1" as="geometry" />
        </mxCell>
        <mxCell id="7zdoYYLGPvzQZQ0uUCYF-6" value="" style="edgeStyle=orthogonalEdgeStyle;rounded=0;orthogonalLoop=1;jettySize=auto;html=1;" edge="1" parent="WIyWlLk6GJQsqaUBKTNV-1" source="2DEnmHCUIAToEe8VNxA_-4" target="7zdoYYLGPvzQZQ0uUCYF-0">
          <mxGeometry relative="1" as="geometry" />
        </mxCell>
        <mxCell id="2DEnmHCUIAToEe8VNxA_-4" value="Sensor Data sent to trained ML model" style="whiteSpace=wrap;html=1;rounded=0;" parent="WIyWlLk6GJQsqaUBKTNV-1" vertex="1">
          <mxGeometry x="160" y="380" width="120" height="60" as="geometry" />
        </mxCell>
        <mxCell id="2DEnmHCUIAToEe8VNxA_-16" value="" style="edgeStyle=orthogonalEdgeStyle;rounded=0;orthogonalLoop=1;jettySize=auto;html=1;entryX=0;entryY=0.5;entryDx=0;entryDy=0;" parent="WIyWlLk6GJQsqaUBKTNV-1" source="2DEnmHCUIAToEe8VNxA_-6" target="2DEnmHCUIAToEe8VNxA_-2" edge="1">
          <mxGeometry relative="1" as="geometry">
            <mxPoint x="50" y="300" as="targetPoint" />
            <Array as="points">
              <mxPoint x="100" y="670" />
              <mxPoint x="100" y="300" />
            </Array>
          </mxGeometry>
        </mxCell>
        <mxCell id="2DEnmHCUIAToEe8VNxA_-18" value="Reset&amp;nbsp;&lt;br style=&quot;font-size: 14px;&quot;&gt;Button&amp;nbsp;&lt;br style=&quot;font-size: 14px;&quot;&gt;on App&lt;br style=&quot;font-size: 14px;&quot;&gt;for new&lt;br style=&quot;font-size: 14px;&quot;&gt;Gesture" style="edgeLabel;html=1;align=center;verticalAlign=middle;resizable=0;points=[];fontSize=14;fontStyle=1;labelBackgroundColor=#ffffff;fontColor=#190033;labelBorderColor=default;spacingTop=4;spacingBottom=4;spacingLeft=2;spacingRight=2;" parent="2DEnmHCUIAToEe8VNxA_-16" vertex="1" connectable="0">
          <mxGeometry x="0.1668" y="-3" relative="1" as="geometry">
            <mxPoint y="8" as="offset" />
          </mxGeometry>
        </mxCell>
        <mxCell id="2DEnmHCUIAToEe8VNxA_-20" value="" style="edgeStyle=orthogonalEdgeStyle;rounded=0;orthogonalLoop=1;jettySize=auto;html=1;" parent="WIyWlLk6GJQsqaUBKTNV-1" source="2DEnmHCUIAToEe8VNxA_-6" target="2DEnmHCUIAToEe8VNxA_-19" edge="1">
          <mxGeometry relative="1" as="geometry" />
        </mxCell>
        <mxCell id="2DEnmHCUIAToEe8VNxA_-6" value="Shows meaning of gesture on App" style="shape=parallelogram;perimeter=parallelogramPerimeter;whiteSpace=wrap;html=1;fixedSize=1;rounded=0;" parent="WIyWlLk6GJQsqaUBKTNV-1" vertex="1">
          <mxGeometry x="150" y="640" width="140" height="60" as="geometry" />
        </mxCell>
        <mxCell id="2DEnmHCUIAToEe8VNxA_-8" value="Invalid Gesture" style="shape=parallelogram;perimeter=parallelogramPerimeter;whiteSpace=wrap;html=1;fixedSize=1;rounded=0;" parent="WIyWlLk6GJQsqaUBKTNV-1" vertex="1">
          <mxGeometry x="380" y="380" width="120" height="60" as="geometry" />
        </mxCell>
        <mxCell id="2DEnmHCUIAToEe8VNxA_-10" value="Unrecognized" style="text;html=1;align=center;verticalAlign=middle;resizable=0;points=[];autosize=1;strokeColor=none;fillColor=none;" parent="WIyWlLk6GJQsqaUBKTNV-1" vertex="1">
          <mxGeometry x="280" y="380" width="100" height="30" as="geometry" />
        </mxCell>
        <mxCell id="7zdoYYLGPvzQZQ0uUCYF-9" value="" style="edgeStyle=orthogonalEdgeStyle;rounded=0;orthogonalLoop=1;jettySize=auto;html=1;exitX=1;exitY=0.75;exitDx=0;exitDy=0;fillColor=#1ba1e2;strokeColor=#006EAF;strokeWidth=2;dashed=1;" edge="1" parent="WIyWlLk6GJQsqaUBKTNV-1" source="2DEnmHCUIAToEe8VNxA_-4" target="7zdoYYLGPvzQZQ0uUCYF-8">
          <mxGeometry relative="1" as="geometry">
            <mxPoint x="320" y="580" as="sourcePoint" />
          </mxGeometry>
        </mxCell>
        <mxCell id="2DEnmHCUIAToEe8VNxA_-11" value="Recognized" style="text;html=1;align=center;verticalAlign=middle;resizable=0;points=[];autosize=1;strokeColor=none;fillColor=none;rotation=90;" parent="WIyWlLk6GJQsqaUBKTNV-1" vertex="1">
          <mxGeometry x="190" y="461" width="90" height="30" as="geometry" />
        </mxCell>
        <mxCell id="2DEnmHCUIAToEe8VNxA_-19" value="STOP" style="ellipse;whiteSpace=wrap;html=1;rounded=0;" parent="WIyWlLk6GJQsqaUBKTNV-1" vertex="1">
          <mxGeometry x="170" y="750" width="100" height="45" as="geometry" />
        </mxCell>
        <mxCell id="2DEnmHCUIAToEe8VNxA_-21" value="END" style="text;html=1;align=center;verticalAlign=middle;resizable=0;points=[];autosize=1;strokeColor=none;fillColor=none;rotation=90;" parent="WIyWlLk6GJQsqaUBKTNV-1" vertex="1">
          <mxGeometry x="210" y="710" width="50" height="30" as="geometry" />
        </mxCell>
        <mxCell id="7zdoYYLGPvzQZQ0uUCYF-7" value="" style="edgeStyle=orthogonalEdgeStyle;rounded=0;orthogonalLoop=1;jettySize=auto;html=1;" edge="1" parent="WIyWlLk6GJQsqaUBKTNV-1" source="7zdoYYLGPvzQZQ0uUCYF-0" target="2DEnmHCUIAToEe8VNxA_-6">
          <mxGeometry relative="1" as="geometry" />
        </mxCell>
        <mxCell id="7zdoYYLGPvzQZQ0uUCYF-0" value="ESP SPP &lt;br&gt;Bluetooth to &lt;br&gt;App" style="ellipse;shape=cloud;whiteSpace=wrap;html=1;" vertex="1" parent="WIyWlLk6GJQsqaUBKTNV-1">
          <mxGeometry x="160" y="520" width="120" height="80" as="geometry" />
        </mxCell>
        <mxCell id="7zdoYYLGPvzQZQ0uUCYF-8" value="For Now the Python Script shows Output on Command Prompt" style="shape=callout;whiteSpace=wrap;html=1;perimeter=calloutPerimeter;base=30;size=30;position=0.36;position2=0.21;fillColor=#fff2cc;strokeColor=#d6b656;" vertex="1" parent="WIyWlLk6GJQsqaUBKTNV-1">
          <mxGeometry x="250" y="470" width="140" height="90" as="geometry" />
        </mxCell>
      </root>
    </mxGraphModel>
  </diagram>
</mxfile>
